<svg width="103" height="49" viewBox="0 0 103 49" fill="none" xmlns="http://www.w3.org/2000/svg">
<path fill-rule="evenodd" clip-rule="evenodd" d="M12.2225 0.153452C11.5588 0.250648 10.9786 0.376371 10.9331 0.432836C10.8875 0.489301 10.8819 0.637521 10.9205 0.762362C10.9694 0.919993 11.1524 0.98925 11.5208 0.98925C12.2546 0.98925 15.2769 1.64918 16.9692 2.17884C25.8824 4.96885 31.6307 10.8502 31.6307 17.1795C31.6307 19.4206 30.8551 21.2943 29.5832 22.1257C28.9778 22.5213 28.9176 22.5308 27.0951 22.5141C24.9524 22.4946 24.8214 22.5866 25.9093 23.3476C27.3131 24.3294 29.2096 26.3898 30.4704 28.3027C30.6437 28.5654 30.8506 28.7806 30.9303 28.7806C31.1757 28.7806 32.3164 27.6082 32.9168 26.7386C34.0434 25.1074 34.6612 23.7114 35.1371 21.7225C35.3186 20.9634 35.3633 20.3429 35.3543 18.7081C35.3446 16.9269 35.3006 16.4755 35.028 15.3588C33.2051 7.8912 26.6411 1.93254 18.4686 0.326376C16.8713 0.0124371 13.7708 -0.0734367 12.2225 0.153452ZM10.346 19.2864C8.91524 19.6781 8.14721 19.99 6.94376 20.6676C1.85748 23.5314 -0.901116 29.9653 0.265573 36.2431C0.374546 36.8295 0.508776 37.3091 0.563677 37.3091C0.618698 37.3091 0.832376 37.1331 1.03846 36.918C2.11029 35.7997 5.00442 34.0558 6.64803 33.5382C7.05143 33.411 7.39673 33.2898 7.41523 33.2689C7.43384 33.2479 7.50096 32.8305 7.56452 32.3412C7.81922 30.3801 8.81943 28.2078 9.88734 27.2967C10.8498 26.4755 11.426 26.2605 12.8954 26.1742C16.3176 25.9731 20.6791 27.2221 23.2469 29.1383C28.1559 32.8021 32.6266 38.3573 36.8333 46.0212C37.6171 47.4491 38.1525 48.2417 38.1525 47.9741C38.1525 47.6128 37.3174 44.4587 36.7847 42.8089C34.4811 35.6718 30.573 28.8109 26.5319 24.8091C24.4274 22.725 21.6344 20.8646 19.2246 19.9416C17.3132 19.2095 16.4609 19.0538 14.0219 18.9905C11.8414 18.9342 11.5453 18.958 10.346 19.2864Z" fill="url(#paint0_linear_5405_21)"/>
<path d="M14.5585 17.8285C14.4792 17.7677 14.4368 16.0703 14.4368 12.9648V8.19458H17.8162H21.1957V13.8558L21.1068 19.5154C21.0579 19.5145 20.7513 19.4136 20.4255 19.291L15.923 18.124C15.2395 18.0127 14.6255 17.8798 14.5585 17.8285Z" fill="url(#paint1_linear_5405_21)"/>
<path d="M14.5553 38.7797V33.0228V27.2659L15.6531 27.3554C16.6979 27.4404 19.4602 28.0902 20.6028 28.5196L21.1364 28.72L21.1676 33.7499L21.1988 38.7797H17.8771H14.5553Z" fill="url(#paint2_linear_5405_21)"/>
<path d="M93.5289 20.384C93.5281 19.0858 94.3452 18.1656 96.0186 17.5799C97.3785 17.1041 100.265 17.352 101.743 18.0716C102 18.1968 102.057 18.3001 102.003 18.5433C101.942 18.8193 101.585 19.9554 101.521 20.0782C101.507 20.1041 101.131 19.9816 100.684 19.806C99.6791 19.4106 97.4605 19.2514 96.4804 19.5041C95.8854 19.6576 95.304 20.0861 95.3089 20.3677C95.3172 20.8447 95.5597 20.9122 97.7033 21.034C100.216 21.1769 100.953 21.3203 101.493 21.771C102.387 22.5181 102.645 23.6368 102.174 24.7257C101.756 25.6922 101.095 26.2317 99.806 26.6571C98.743 27.0079 96.7137 27.0085 95.485 26.6584C94.6615 26.4239 93.647 25.9397 93.647 25.7811C93.647 25.5159 94.2717 24.0748 94.3866 24.075C94.469 24.075 94.8093 24.2036 95.143 24.3608C96.1015 24.8127 97.5731 25.0011 98.7337 24.8206C99.8948 24.6401 100.449 24.3047 100.502 23.7508C100.535 23.399 100.488 23.3543 99.9326 23.2065C99.5995 23.118 98.8628 23.0444 98.2954 23.043C97.7279 23.0416 96.7605 22.9747 96.1455 22.8944C94.3674 22.6622 93.5299 21.8587 93.5289 20.384Z" fill="white"/>
<path d="M40.1684 26.5746V22.0897V17.6049H44.5558H48.9431V18.6342V19.6635H45.5044H42.0656V20.3987V21.134H45.0951H48.1244L48.0891 22.053L48.0538 22.972L45.0597 23.0113L42.0656 23.0505V23.7832V24.516H45.623H49.1803V25.5453V26.5746H44.6743H40.1684Z" fill="white"/>
<path d="M50.7811 19.59L50.746 18.5974L50.711 17.6049H54.9906H59.2702L59.2352 18.5974L59.2001 19.59L57.5697 19.6309L55.9392 19.6718V23.1232V26.5746H54.9906H54.042V23.1232V19.6718L52.4115 19.6309L50.7811 19.59Z" fill="white"/>
<path d="M60.6042 18.2706C60.5168 18.1112 60.4452 17.8935 60.4452 17.7871C60.4452 17.6384 60.6865 17.6033 61.4828 17.6359L62.5203 17.6784L63.8287 20.8743C64.5484 22.632 65.197 24.1444 65.27 24.235C65.3682 24.3567 65.5076 24.1362 65.8033 23.3918C66.0235 22.8375 66.6455 21.3086 67.1855 19.9944L68.1674 17.6049H69.2273C69.8103 17.6049 70.2872 17.6564 70.2872 17.7192C70.2872 17.7821 70.2154 17.9641 70.1277 18.1235C70.0399 18.2831 69.4034 19.7701 68.713 21.428C68.0227 23.086 67.2541 24.9234 67.0049 25.5113L66.552 26.58L65.3247 26.5406L64.0975 26.5011L63.6864 25.5453C63.4602 25.0196 62.71 23.233 62.0192 21.5751C61.3285 19.9172 60.6917 18.4301 60.6042 18.2706Z" fill="white"/>
<path d="M71.8287 26.5746V22.0897V17.6049H76.2161H80.6035V18.6342V19.6635H77.1647H73.7259V20.3987V21.134H76.7554H79.7847L79.7494 22.053L79.7141 22.972L76.72 23.0113L73.7259 23.0505V23.7832V24.516H77.2833H80.8406V25.5453V26.5746H76.3346H71.8287Z" fill="white"/>
<path d="M82.7379 26.5746V22.0897V17.6049H83.7517H84.7655L86.7458 20.0064C87.8349 21.3273 88.9796 22.6922 89.2893 23.0395L89.8525 23.6712V20.638V17.6049H90.8012H91.7498V22.0897V26.5746L90.7715 26.5722L89.7932 26.5699L87.3624 23.6386C86.0254 22.0264 84.8916 20.704 84.8426 20.7C84.7936 20.6961 84.7537 22.0162 84.7537 23.6337V26.5746H83.7458H82.7379Z" fill="white"/>
<path d="M38.2666 30.3308C38.4018 30.1289 40.5985 30.1004 58.5918 30.0669C69.6874 30.0461 84.1966 30.0129 90.8345 29.9929C101.621 29.9604 102.911 29.9807 102.974 30.1835C103.012 30.3083 103.008 30.4552 102.964 30.5099C102.826 30.6802 38.3725 30.8764 38.2359 30.707C38.154 30.6054 38.1638 30.4845 38.2666 30.3308Z" fill="white"/>
<path d="M43.4283 33.1062V33.6914H42.1529V36.6085H41.4436V33.6914H40.1682V33.1062H43.4283Z" fill="white"/>
<path d="M48.4055 33.1062V33.7199H46.1433V34.3299H48.3103V34.9139H46.1433V35.9873H48.4345V36.6085H45.429V33.1062H48.4055Z" fill="white"/>
<path d="M53.4571 36.2913C53.1415 36.5398 52.7147 36.664 52.1797 36.664C51.8327 36.6746 51.4876 36.5968 51.1658 36.4354C50.9046 36.3037 50.6803 36.08 50.5206 35.7919C50.3693 35.5036 50.2914 35.1655 50.2972 34.8216C50.2921 34.4887 50.3701 34.1619 50.5206 33.8861C50.682 33.6052 50.9063 33.3892 51.1658 33.2649C51.4887 33.1095 51.8334 33.0352 52.1797 33.0462C52.688 33.0462 53.1001 33.1568 53.416 33.378C53.5621 33.4712 53.6898 33.6034 53.7897 33.7652C53.8897 33.927 53.9595 34.1142 53.994 34.3135H53.2477C53.1829 34.0999 53.0535 33.926 52.887 33.8289C52.6672 33.705 52.4269 33.6471 52.1857 33.66C51.819 33.66 51.5365 33.7643 51.3361 33.9743C51.2372 34.0772 51.1587 34.2069 51.1066 34.3534C51.0545 34.4998 51.0302 34.6592 51.0355 34.8191C51.029 34.9869 51.0526 35.1544 51.1046 35.3095C51.1566 35.4646 51.2356 35.6035 51.3361 35.7161C51.5365 35.9364 51.819 36.0466 52.1837 36.0466C52.4415 36.0614 52.6977 35.9892 52.9251 35.8379C53.0142 35.7745 53.0916 35.6887 53.1523 35.586C53.2131 35.4833 53.2558 35.3659 53.2777 35.2415H54.0091C53.9864 35.4566 53.925 35.6626 53.8294 35.8444C53.7339 36.0261 53.6066 36.1788 53.4571 36.2913Z" fill="white"/>
<path d="M56.7633 33.1112V34.3299H58.6348V33.1062H59.3451V36.5985H58.6348V34.9139H56.7633V36.6085H56.052V33.1112H56.7633Z" fill="white"/>
<path d="M62.5631 33.1062L64.166 35.6705H64.2592V33.1062H64.9786V36.6085H64.0358L62.4328 34.0442H62.3326V36.6085H61.6223V33.1062H62.5631Z" fill="white"/>
<path d="M67.2908 33.885C67.4586 33.602 67.6895 33.3861 67.955 33.2638C68.6315 32.9723 69.3674 32.9723 70.0439 33.2638C70.3091 33.3861 70.5397 33.602 70.7071 33.885C70.8611 34.159 70.9411 34.4865 70.9355 34.8205C70.9415 35.1653 70.8618 35.5041 70.7071 35.7908C70.5414 36.081 70.3109 36.3047 70.0439 36.4343C69.3693 36.7392 68.6296 36.7392 67.955 36.4343C67.6877 36.3047 67.4568 36.081 67.2908 35.7908C67.1364 35.504 67.057 35.1652 67.0633 34.8205C67.0574 34.4867 67.137 34.1591 67.2908 33.885ZM69.8806 35.7187C69.984 35.6101 70.066 35.4736 70.1204 35.3196C70.1747 35.1657 70.2 34.9983 70.1942 34.8304C70.1992 34.6679 70.1735 34.5061 70.119 34.3581C70.0646 34.2101 69.9829 34.08 69.8806 33.9782C69.6715 33.7669 69.377 33.6613 68.9969 33.6613C68.6202 33.6613 68.3267 33.7669 68.1183 33.9782C68.016 34.08 67.9343 34.2101 67.8798 34.3581C67.8254 34.5061 67.7997 34.6679 67.8047 34.8304C67.7989 34.9983 67.8241 35.1657 67.8785 35.3196C67.9328 35.4736 68.0149 35.6101 68.1183 35.7187C68.3267 35.9386 68.6192 36.0479 68.9969 36.0479C69.3746 36.0479 69.6712 35.9386 69.8806 35.7187Z" fill="white"/>
<path d="M73.7298 33.1062V36.0196H75.8919V36.6085H73.0195V33.1062H73.7298Z" fill="white"/>
<path d="M77.9026 33.885C78.0702 33.6024 78.3007 33.3865 78.5658 33.2639C79.2426 32.9723 79.9789 32.9723 80.6557 33.2639C80.9208 33.3865 81.1513 33.6024 81.3189 33.885C81.4729 34.1591 81.5529 34.4866 81.5473 34.8206C81.5534 35.1654 81.4736 35.5042 81.3189 35.7908C81.153 36.0807 80.9225 36.3044 80.6557 36.4344C79.9807 36.7392 79.2408 36.7392 78.5658 36.4344C78.299 36.3044 78.0685 36.0807 77.9026 35.7908C77.7479 35.5042 77.6681 35.1654 77.6741 34.8206C77.6686 34.4866 77.7486 34.1591 77.9026 33.885ZM80.4924 35.7188C80.5956 35.61 80.6776 35.4735 80.7319 35.3195C80.7862 35.1656 80.8116 34.9984 80.806 34.8305C80.8108 34.668 80.785 34.5063 80.7305 34.3583C80.6761 34.2104 80.5945 34.0802 80.4924 33.9782C80.2833 33.767 79.9885 33.6614 79.6077 33.6614C79.227 33.6614 78.9342 33.767 78.7291 33.9782C78.627 34.0802 78.5454 34.2104 78.491 34.3583C78.4365 34.5063 78.4107 34.668 78.4155 34.8305C78.4099 34.9984 78.4353 35.1656 78.4896 35.3195C78.5439 35.4735 78.6258 35.61 78.7291 35.7188C78.9382 35.9391 79.231 36.0488 79.6077 36.048C79.9844 36.0472 80.2777 35.9374 80.4874 35.7188H80.4924Z" fill="white"/>
<path d="M86.0497 35.8182C86.1403 35.7466 86.2184 35.6532 86.2794 35.5435C86.3403 35.4338 86.3828 35.3101 86.4044 35.1796H85.5027V34.5994H86.6428C86.9928 34.5994 87.1675 34.7319 87.1668 34.9969V36.6083H86.5036V35.8629H86.4565C86.3484 36.1227 86.1769 36.3335 85.9666 36.4654C85.7188 36.6133 85.4459 36.6848 85.1711 36.6742C84.8561 36.683 84.5435 36.6041 84.2564 36.4431C84.011 36.3045 83.8025 36.0821 83.6553 35.802C83.5117 35.5211 83.4378 35.1941 83.4429 34.8615C83.4375 34.5264 83.5151 34.1973 83.6653 33.9186C83.8269 33.6334 84.0522 33.4132 84.3135 33.285C84.6345 33.1251 84.9785 33.0481 85.3244 33.0588C85.8327 33.0588 86.2448 33.1694 86.5607 33.3906C86.707 33.4836 86.8347 33.6158 86.9347 33.7776C87.0347 33.9394 87.1044 34.1267 87.1388 34.3261H86.3924C86.3276 34.1125 86.1982 33.9386 86.0317 33.8415C85.812 33.7173 85.5716 33.6594 85.3304 33.6726C84.9677 33.6726 84.6852 33.7823 84.4828 34.0018C84.3841 34.1081 84.3058 34.2406 84.2538 34.3893C84.2018 34.5381 84.1773 34.6995 84.1823 34.8615C84.1769 35.0251 84.2011 35.1881 84.2531 35.3386C84.3052 35.489 84.3836 35.6232 84.4828 35.7312C84.6832 35.949 84.9657 36.0575 85.3304 36.0567C85.5839 36.0674 85.8343 35.9844 86.0497 35.8182Z" fill="white"/>
<path d="M90.1473 33.1062V36.6085H89.437V33.1062H90.1473Z" fill="white"/>
<path d="M95.394 33.1062V33.7199H93.1308V34.3299H95.2978V34.9139H93.1308V35.9873H95.425V36.6085H92.4194V33.1062H95.394Z" fill="white"/>
<path d="M99.7821 33.689C99.6389 33.5983 99.3954 33.5536 99.0538 33.5536C98.8198 33.541 98.5857 33.5775 98.3615 33.6617C98.2082 33.7338 98.1311 33.8319 98.1311 33.9561C98.1311 34.0804 98.2042 34.1636 98.3515 34.2245C98.6017 34.3016 98.8581 34.3433 99.1159 34.3487C99.7551 34.4017 100.21 34.5156 100.479 34.6904C100.749 34.8656 100.88 35.1078 100.88 35.4147C100.881 35.6458 100.813 35.8693 100.691 36.0433C100.528 36.2589 100.32 36.4138 100.09 36.4906C99.7516 36.6135 99.4 36.6701 99.0478 36.6583C97.8382 36.6583 97.2334 36.1767 97.2334 35.2134H97.9798C97.9798 35.8396 98.3358 36.1522 99.0478 36.1514C99.4074 36.1514 99.6779 36.0918 99.8593 35.97C100.041 35.8483 100.131 35.6868 100.131 35.4843C100.131 35.3165 100.043 35.1911 99.8673 35.1116C99.5811 35.0047 99.2845 34.9462 98.9857 34.9376C98.6622 34.9202 98.341 34.8624 98.0269 34.7649C97.8411 34.716 97.6686 34.6086 97.5259 34.4531C97.4779 34.3928 97.4401 34.3211 97.4148 34.2424C97.3895 34.1636 97.3772 34.0794 97.3787 33.9947C97.3787 33.7089 97.5119 33.4803 97.7794 33.3064C98.0469 33.1325 98.4687 33.0467 99.0498 33.0467C99.387 33.0326 99.7237 33.0915 100.045 33.2207C100.25 33.2994 100.435 33.4433 100.582 33.6381C100.676 33.7675 100.732 33.9333 100.74 34.1077H99.9935C99.9957 34.0198 99.9768 33.9331 99.9392 33.8585C99.9015 33.784 99.8469 33.725 99.7821 33.689Z" fill="white"/>
<defs>
<linearGradient id="paint0_linear_5405_21" x1="50.4921" y1="0.0256348" x2="50.4921" y2="48.0256" gradientUnits="userSpaceOnUse">
<stop stop-color="#ADD93F"/>
<stop offset="1" stop-color="#8AC200"/>
</linearGradient>
<linearGradient id="paint1_linear_5405_21" x1="50.492" y1="0.0258828" x2="50.492" y2="48.0259" gradientUnits="userSpaceOnUse">
<stop stop-color="#065A86"/>
<stop offset="1" stop-color="#378DBB"/>
</linearGradient>
<linearGradient id="paint2_linear_5405_21" x1="50.492" y1="0.0258828" x2="50.492" y2="48.0259" gradientUnits="userSpaceOnUse">
<stop stop-color="#065A86"/>
<stop offset="1" stop-color="#378DBB"/>
</linearGradient>
</defs>
</svg>
