<svg width="103" height="48" viewBox="0 0 103 48" fill="none" xmlns="http://www.w3.org/2000/svg">
<path fill-rule="evenodd" clip-rule="evenodd" d="M12.2225 0.127817C11.5588 0.225014 10.9786 0.350736 10.9331 0.407201C10.8875 0.463666 10.8819 0.611887 10.9205 0.736727C10.9694 0.894358 11.1524 0.963616 11.5207 0.963616C12.2546 0.963616 15.2769 1.62355 16.9692 2.1532C25.8824 4.94322 31.6307 10.8245 31.6307 17.1539C31.6307 19.395 30.8551 21.2686 29.5832 22.1C28.9778 22.4957 28.9176 22.5051 27.0951 22.4885C24.9524 22.469 24.8214 22.561 25.9093 23.322C27.3131 24.3038 29.2096 26.3641 30.4704 28.277C30.6437 28.5398 30.8506 28.7549 30.9303 28.7549C31.1757 28.7549 32.3164 27.5826 32.9168 26.7129C34.0434 25.0818 34.6612 23.6857 35.1371 21.6968C35.3186 20.9378 35.3633 20.3173 35.3543 18.6824C35.3446 16.9013 35.3006 16.4499 35.028 15.3332C33.2051 7.86557 26.6411 1.9069 18.4686 0.300741C16.8713 -0.0131976 13.7708 -0.0990714 12.2225 0.127817ZM10.346 19.2607C8.91524 19.6525 8.14721 19.9644 6.94376 20.6419C1.85748 23.5058 -0.901115 29.9397 0.265573 36.2174C0.374546 36.8038 0.508776 37.2835 0.563677 37.2835C0.618698 37.2835 0.832376 37.1075 1.03846 36.8924C2.11029 35.7741 5.00442 34.0301 6.64803 33.5125C7.05143 33.3854 7.39673 33.2642 7.41523 33.2433C7.43384 33.2223 7.50096 32.8048 7.56452 32.3156C7.81922 30.3545 8.81943 28.1822 9.88734 27.2711C10.8498 26.4499 11.426 26.2349 12.8954 26.1486C16.3176 25.9474 20.6791 27.1964 23.2469 29.1127C28.1559 32.7764 32.6265 38.3316 36.8333 45.9956C37.6171 47.4235 38.1525 48.2161 38.1525 47.9484C38.1525 47.5872 37.3174 44.4331 36.7847 42.7832C34.4811 35.6462 30.573 28.7852 26.5319 24.7834C24.4274 22.6994 21.6344 20.839 19.2246 19.916C17.3132 19.1838 16.4609 19.0281 14.0219 18.9649C11.8414 18.9086 11.5453 18.9324 10.346 19.2607Z" fill="url(#paint0_linear_5405_2)"/>
<path d="M14.5585 17.8026C14.4792 17.7419 14.4368 16.0444 14.4368 12.939V8.1687H17.8162H21.1957V13.8299L21.1068 19.4895C21.0579 19.4886 20.7513 19.3877 20.4255 19.2651L15.923 18.0981C15.2395 17.9868 14.6255 17.8539 14.5585 17.8026Z" fill="url(#paint1_linear_5405_2)"/>
<path d="M14.5553 38.7539V32.9969V27.24L15.6531 27.3296C16.6979 27.4146 19.4602 28.0643 20.6028 28.4937L21.1364 28.6941L21.1676 33.7241L21.1988 38.7539H17.8771H14.5553Z" fill="url(#paint2_linear_5405_2)"/>
<path d="M93.5289 20.3584C93.5281 19.0601 94.3452 18.1399 96.0186 17.5543C97.3785 17.0784 100.265 17.3263 101.743 18.046C102 18.1711 102.057 18.2745 102.003 18.5177C101.942 18.7937 101.585 19.9298 101.521 20.0525C101.507 20.0784 101.131 19.9559 100.684 19.7804C99.6791 19.385 97.4605 19.2257 96.4804 19.4785C95.8854 19.632 95.304 20.0605 95.3089 20.3421C95.3172 20.8191 95.5597 20.8866 97.7033 21.0083C100.216 21.1513 100.953 21.2946 101.493 21.7453C102.387 22.4924 102.645 23.6112 102.174 24.7C101.756 25.6665 101.095 26.206 99.8059 26.6314C98.743 26.9823 96.7137 26.9829 95.485 26.6328C94.6614 26.3982 93.647 25.914 93.647 25.7555C93.647 25.4902 94.2717 24.0492 94.3866 24.0494C94.469 24.0494 94.8093 24.178 95.143 24.3352C96.1015 24.7871 97.5731 24.9754 98.7336 24.795C99.8948 24.6144 100.449 24.279 100.502 23.7251C100.535 23.3734 100.488 23.3287 99.9326 23.1809C99.5995 23.0924 98.8628 23.0187 98.2954 23.0174C97.7279 23.0159 96.7605 22.949 96.1454 22.8687C94.3674 22.6366 93.5299 21.8331 93.5289 20.3584Z" fill="black"/>
<path d="M40.1684 26.549V22.0641V17.5793H44.5558H48.9431V18.6086V19.6379H45.5044H42.0656V20.3731V21.1083H45.095H48.1244L48.0891 22.0273L48.0538 22.9464L45.0597 22.9856L42.0656 23.0249V23.7576V24.4903H45.623H49.1803V25.5196V26.549H44.6743H40.1684Z" fill="black"/>
<path d="M50.7811 19.5644L50.746 18.5718L50.711 17.5793H54.9906H59.2702L59.2352 18.5718L59.2001 19.5644L57.5697 19.6052L55.9392 19.6461V23.0975V26.549H54.9906H54.042V23.0975V19.6461L52.4115 19.6052L50.7811 19.5644Z" fill="black"/>
<path d="M60.6042 18.2449C60.5168 18.0855 60.4452 17.8679 60.4452 17.7615C60.4452 17.6128 60.6865 17.5776 61.4827 17.6103L62.5203 17.6528L63.8287 20.8486C64.5483 22.6064 65.197 24.1188 65.27 24.2093C65.3682 24.3311 65.5076 24.1105 65.8033 23.3662C66.0235 22.8118 66.6455 21.283 67.1855 19.9687L68.1673 17.5793H69.2273C69.8102 17.5793 70.2872 17.6307 70.2872 17.6935C70.2872 17.7565 70.2154 17.9385 70.1277 18.0979C70.0399 18.2574 69.4034 19.7445 68.713 21.4024C68.0227 23.0603 67.2541 24.8978 67.0049 25.4857L66.552 26.5544L65.3247 26.515L64.0975 26.4754L63.6864 25.5196C63.4602 24.994 62.71 23.2074 62.0192 21.5495C61.3285 19.8915 60.6917 18.4045 60.6042 18.2449Z" fill="black"/>
<path d="M71.8287 26.549V22.0641V17.5793H76.2161H80.6034V18.6086V19.6379H77.1647H73.7259V20.3731V21.1083H76.7553H79.7847L79.7494 22.0273L79.7141 22.9464L76.72 22.9856L73.7259 23.0249V23.7576V24.4903H77.2833H80.8406V25.5196V26.549H76.3346H71.8287Z" fill="black"/>
<path d="M82.7378 26.549V22.0641V17.5793H83.7517H84.7655L86.7458 19.9808C87.8349 21.3017 88.9795 22.6665 89.2893 23.0139L89.8525 23.6456V20.6123V17.5793H90.8011H91.7498V22.0641V26.549L90.7715 26.5466L89.7932 26.5442L87.3624 23.6129C86.0254 22.0007 84.8916 20.6784 84.8426 20.6744C84.7936 20.6704 84.7537 21.9906 84.7537 23.6081V26.549H83.7458H82.7378Z" fill="black"/>
<path d="M38.2666 30.3052C38.4018 30.1033 40.5985 30.0748 58.5918 30.0412C69.6874 30.0205 84.1966 29.9873 90.8345 29.9673C101.621 29.9348 102.911 29.9551 102.974 30.1579C103.012 30.2827 103.008 30.4296 102.964 30.4843C102.826 30.6546 38.3725 30.8507 38.2359 30.6813C38.154 30.5797 38.1638 30.4589 38.2666 30.3052Z" fill="black"/>
<path d="M43.4283 33.0806V33.6657H42.1529V36.5828H41.4436V33.6657H40.1682V33.0806H43.4283Z" fill="black"/>
<path d="M48.4055 33.0806V33.6943H46.1433V34.3043H48.3103V34.8882H46.1433V35.9616H48.4345V36.5828H45.429V33.0806H48.4055Z" fill="black"/>
<path d="M53.4571 36.2659C53.1415 36.5144 52.7147 36.6386 52.1797 36.6386C51.8327 36.6492 51.4876 36.5714 51.1658 36.41C50.9046 36.2783 50.6803 36.0546 50.5206 35.7665C50.3693 35.4782 50.2914 35.1401 50.2972 34.7962C50.2921 34.4633 50.3701 34.1365 50.5206 33.8607C50.682 33.5798 50.9063 33.3638 51.1658 33.2395C51.4887 33.0841 51.8334 33.0098 52.1797 33.0209C52.688 33.0209 53.1001 33.1314 53.416 33.3526C53.5621 33.4458 53.6898 33.578 53.7897 33.7398C53.8897 33.9016 53.9595 34.0888 53.994 34.2881H53.2477C53.1829 34.0745 53.0535 33.9006 52.887 33.8036C52.6672 33.6796 52.4269 33.6217 52.1857 33.6346C51.819 33.6346 51.5365 33.7389 51.3361 33.9489C51.2372 34.0518 51.1587 34.1815 51.1066 34.328C51.0545 34.4744 51.0302 34.6338 51.0355 34.7937C51.029 34.9615 51.0526 35.129 51.1046 35.2841C51.1566 35.4392 51.2356 35.5781 51.3361 35.6907C51.5365 35.911 51.819 36.0212 52.1837 36.0212C52.4415 36.036 52.6977 35.9639 52.9251 35.8125C53.0142 35.7491 53.0916 35.6633 53.1523 35.5606C53.2131 35.4579 53.2558 35.3406 53.2777 35.2161H54.0091C53.9864 35.4312 53.925 35.6373 53.8294 35.819C53.7339 36.0007 53.6066 36.1534 53.4571 36.2659Z" fill="black"/>
<path d="M56.7631 33.0855V34.3043H58.6346V33.0806H59.3449V36.5729H58.6346V34.8882H56.7631V36.5828H56.0518V33.0855H56.7631Z" fill="black"/>
<path d="M62.5628 33.0806L64.1658 35.6448H64.259V33.0806H64.9783V36.5828H64.0356L62.4326 34.0186H62.3324V36.5828H61.6221V33.0806H62.5628Z" fill="black"/>
<path d="M67.2905 33.8596C67.4583 33.5766 67.6892 33.3607 67.9548 33.2384C68.6312 32.9469 69.3672 32.9469 70.0436 33.2384C70.3089 33.3607 70.5395 33.5766 70.7069 33.8596C70.8609 34.1336 70.9409 34.4611 70.9353 34.7951C70.9413 35.1399 70.8615 35.4787 70.7069 35.7654C70.5412 36.0556 70.3106 36.2793 70.0436 36.4089C69.369 36.7138 68.6294 36.7138 67.9548 36.4089C67.6875 36.2793 67.4566 36.0556 67.2905 35.7654C67.1362 35.4786 67.0568 35.1398 67.0631 34.7951C67.0572 34.4613 67.1368 34.1337 67.2905 33.8596ZM69.8803 35.6933C69.9838 35.5847 70.0658 35.4482 70.1202 35.2943C70.1745 35.1403 70.1997 34.9729 70.1939 34.805C70.199 34.6425 70.1732 34.4807 70.1188 34.3327C70.0643 34.1847 69.9827 34.0546 69.8803 33.9528C69.6713 33.7416 69.3767 33.636 68.9967 33.636C68.62 33.636 68.3264 33.7416 68.1181 33.9528C68.0157 34.0546 67.9341 34.1847 67.8796 34.3327C67.8251 34.4807 67.7994 34.6425 67.8045 34.805C67.7987 34.9729 67.8239 35.1403 67.8782 35.2943C67.9326 35.4482 68.0146 35.5847 68.1181 35.6933C68.3264 35.9132 68.619 36.0226 68.9967 36.0226C69.3744 36.0226 69.6709 35.9132 69.8803 35.6933Z" fill="black"/>
<path d="M73.7296 33.0806V35.9939H75.8916V36.5828H73.0193V33.0806H73.7296Z" fill="black"/>
<path d="M77.9023 33.8597C78.0699 33.577 78.3004 33.3611 78.5656 33.2385C79.2423 32.9469 79.9787 32.9469 80.6554 33.2385C80.9206 33.3611 81.1511 33.577 81.3187 33.8597C81.4727 34.1337 81.5527 34.4612 81.5471 34.7952C81.5531 35.14 81.4734 35.4788 81.3187 35.7655C81.1527 36.0554 80.9223 36.279 80.6554 36.409C79.9805 36.7138 79.2405 36.7138 78.5656 36.409C78.2987 36.279 78.0683 36.0554 77.9023 35.7655C77.7477 35.4788 77.6679 35.14 77.6739 34.7952C77.6683 34.4612 77.7483 34.1337 77.9023 33.8597ZM80.4921 35.6934C80.5954 35.5846 80.6773 35.4481 80.7316 35.2941C80.786 35.1402 80.8113 34.973 80.8057 34.8051C80.8105 34.6426 80.7847 34.4809 80.7303 34.3329C80.6758 34.185 80.5943 34.0548 80.4921 33.9528C80.2831 33.7416 79.9882 33.636 79.6075 33.636C79.2268 33.636 78.9339 33.7416 78.7289 33.9528C78.6267 34.0548 78.5452 34.185 78.4907 34.3329C78.4363 34.4809 78.4105 34.6426 78.4153 34.8051C78.4097 34.973 78.435 35.1402 78.4894 35.2941C78.5437 35.4481 78.6256 35.5846 78.7289 35.6934C78.9379 35.9137 79.2308 36.0235 79.6075 36.0226C79.9842 36.0218 80.2774 35.9121 80.4871 35.6934H80.4921Z" fill="black"/>
<path d="M86.0495 35.7925C86.1401 35.721 86.2182 35.6276 86.2791 35.5179C86.34 35.4082 86.3826 35.2844 86.4042 35.1539H85.5025V34.5738H86.6426C86.9926 34.5738 87.1672 34.7063 87.1666 34.9713V36.5827H86.5033V35.8372H86.4563C86.3481 36.097 86.1767 36.3079 85.9663 36.4398C85.7186 36.5876 85.4457 36.6592 85.1709 36.6485C84.8559 36.6574 84.5433 36.5784 84.2562 36.4174C84.0108 36.2788 83.8023 36.0565 83.655 35.7764C83.5115 35.4955 83.4376 35.1684 83.4426 34.8359C83.4373 34.5008 83.5149 34.1717 83.6651 33.8929C83.8266 33.6078 84.052 33.3876 84.3133 33.2593C84.6343 33.0994 84.9783 33.0225 85.3241 33.0332C85.8324 33.0332 86.2445 33.1438 86.5604 33.3649C86.7067 33.4579 86.8345 33.5901 86.9345 33.7519C87.0345 33.9137 87.1042 34.1011 87.1385 34.3004H86.3921C86.3274 34.0868 86.198 33.913 86.0315 33.8159C85.8117 33.6917 85.5714 33.6338 85.3302 33.6469C84.9675 33.6469 84.685 33.7567 84.4826 33.9762C84.3838 34.0825 84.3056 34.2149 84.2536 34.3637C84.2015 34.5125 84.1771 34.6738 84.182 34.8359C84.1767 34.9995 84.2009 35.1625 84.2529 35.3129C84.3049 35.4634 84.3834 35.5975 84.4826 35.7056C84.683 35.9234 84.9655 36.0319 85.3302 36.0311C85.5837 36.0417 85.8341 35.9587 86.0495 35.7925Z" fill="black"/>
<path d="M90.1471 33.0806V36.5828H89.4368V33.0806H90.1471Z" fill="black"/>
<path d="M95.394 33.0806V33.6943H93.1308V34.3043H95.2978V34.8882H93.1308V35.9616H95.425V36.5828H92.4194V33.0806H95.394Z" fill="black"/>
<path d="M99.7821 33.6632C99.6389 33.5725 99.3954 33.5277 99.0538 33.5277C98.8198 33.5151 98.5857 33.5516 98.3615 33.6358C98.2082 33.7079 98.1311 33.806 98.1311 33.9303C98.1311 34.0545 98.2042 34.1377 98.3515 34.1986C98.6017 34.2758 98.8581 34.3174 99.1159 34.3229C99.7551 34.3759 100.21 34.4897 100.479 34.6645C100.749 34.8397 100.88 35.0819 100.88 35.3888C100.881 35.6199 100.813 35.8434 100.691 36.0175C100.528 36.233 100.32 36.3879 100.09 36.4647C99.7516 36.5876 99.4 36.6442 99.0478 36.6324C97.8382 36.6324 97.2334 36.1508 97.2334 35.1875H97.9798C97.9798 35.8137 98.3358 36.1264 99.0478 36.1255C99.4074 36.1255 99.6779 36.0659 99.8593 35.9441C100.041 35.8224 100.131 35.6609 100.131 35.4584C100.131 35.2907 100.043 35.1652 99.8673 35.0857C99.5811 34.9788 99.2845 34.9203 98.9857 34.9117C98.6622 34.8943 98.341 34.8365 98.0269 34.739C97.8411 34.6901 97.6686 34.5827 97.5259 34.4272C97.4779 34.3669 97.4401 34.2952 97.4148 34.2165C97.3895 34.1378 97.3772 34.0535 97.3787 33.9688C97.3787 33.683 97.5119 33.4544 97.7794 33.2805C98.0469 33.1066 98.4687 33.0208 99.0498 33.0208C99.387 33.0067 99.7237 33.0656 100.045 33.1948C100.25 33.2735 100.435 33.4174 100.582 33.6122C100.676 33.7417 100.732 33.9074 100.74 34.0818H99.9935C99.9957 33.9939 99.9768 33.9072 99.9392 33.8326C99.9015 33.7581 99.8469 33.6991 99.7821 33.6632Z" fill="black"/>
<defs>
<linearGradient id="paint0_linear_5405_2" x1="50.4921" y1="0" x2="50.4921" y2="48" gradientUnits="userSpaceOnUse">
<stop stop-color="#ADD93F"/>
<stop offset="1" stop-color="#8AC200"/>
</linearGradient>
<linearGradient id="paint1_linear_5405_2" x1="50.492" y1="3.87985e-06" x2="50.492" y2="48" gradientUnits="userSpaceOnUse">
<stop stop-color="#065A86"/>
<stop offset="1" stop-color="#378DBB"/>
</linearGradient>
<linearGradient id="paint2_linear_5405_2" x1="50.492" y1="3.87985e-06" x2="50.492" y2="48" gradientUnits="userSpaceOnUse">
<stop stop-color="#065A86"/>
<stop offset="1" stop-color="#378DBB"/>
</linearGradient>
</defs>
</svg>
